<svg id="Ut2J_ZE0t" viewBox="0 0 150 160.07445758487856" height="160.07445758487856" width="150" style="width: 150px; height: 160.074px; position: absolute; top: 50%; left: 50%; transform: translate(-50%, -50%) scale(1.04951); z-index: 0; cursor: pointer; overflow: visible;"><defs id="SvgjsDefs1356"></defs><g id="SvgjsG1357" featurekey="symbolFeature-0" transform="matrix(0.7197771783539666,0,0,0.7197771783539666,42.32361211482871,-2.8031065074947503)" fill="#07689f"><g xmlns="http://www.w3.org/2000/svg"><path d="M6,13.1c0.2,0,0.4,0.1,0.5,0.1c0.4,8.7,1,17.3,1,26c0,4.6-0.1,9.2-0.4,13.8C7,58,6.1,63,5.7,68.1c-0.1,1.5,1.3,2.6,2.7,2.7   c6.3,0.5,12.5,2.1,18.2,4.8c2.5,1.2,4.9,2.5,7.2,4c2.4,1.6,4.7,3.8,7.3,5c2.1,1,4.2,0.6,6.3-0.3c3.4-1.5,6.7-3.3,10-5   c6.1-3.1,12.2-6.2,18.3-9.3c2.3-1.2,5.2-2.2,7.1-4.1c2.1-2.1,2.1-5.1,2.2-7.8c0.3-7,0.6-14,0.9-21c0.3-7,0.6-14,1-21   c0.2-4.1,1.1-11.1-4.4-12.1c-3-0.6-6.3,1.5-9,2.7C70.3,8,67,9.5,63.7,11c-6.4,3.1-12.7,6.5-18.8,10.1C33.3,14.5,20.8,9.7,7.7,7   C3.7,6.2,2,12.4,6,13.1z M46.5,27.1c9.6-5.8,19.7-11.1,30-15.5c1.1-0.5,2.5-1.4,3.7-1.5c1.4-0.2,1.1-0.5,1.2,0.9   c0.3,2.9-0.2,6-0.3,8.9c-0.2,5.7-0.5,11.5-0.7,17.2c-0.2,5.9-0.5,11.9-0.8,17.8c-0.1,2.6,0.4,6.1-1.8,7.7c-2.3,1.6-5.3,2.7-7.8,3.9   c-5.4,2.7-10.7,5.4-16.1,8.1c-2.5,1.3-5,2.5-7.4,3.8c-0.4,0.2-0.8,0.4-1.1,0.6c0-0.1,0-0.1,0-0.2c0.4-2.5,0-5.3,0-7.8   c0-3.2,0-6.4,0-9.6c-0.1-11.3,0.1-22.6-0.7-33.9C45.3,27.5,45.9,27.4,46.5,27.1z M42.7,26.6c-0.5,8.6-0.4,17.2-0.6,25.7   c-0.1,4.5-0.2,9-0.3,13.5c-0.1,2.1-0.1,4.3-0.2,6.4c0,1.3,0,2.6-0.1,3.8c-0.1,0.5-0.1,1-0.2,1.5c-0.1,0.1-0.1,0.2-0.1,0.3   c-0.6-0.5-1.1-0.9-1.7-1.3c-8.4-5.9-18.1-9.6-28.2-10.9c0.6-9,0.3-18.2,0.1-27.1c-0.2-8.2-0.6-16.5-1.7-24.7   C21.2,16.4,32.3,20.7,42.7,26.6z"></path><path d="M50.4,39.2c4.5-1.1,8.8-3.2,13.1-4.9c4.1-1.6,8.3-3.1,12.2-5c1.8-0.8,0.5-3.9-1.4-3.2c-4.1,1.6-8.1,3.5-12.1,5.3   c-4.2,1.9-8.7,3.6-12.6,6C48.7,38,49.3,39.5,50.4,39.2z"></path><path d="M48.6,50.9c6.2-2.1,12.6-4.5,18.4-7.5c1.4-0.7,0.4-3-1.1-2.5c-6.1,2.2-12.3,5.3-18,8.4C47,49.7,47.6,51.2,48.6,50.9z"></path><path d="M70.9,51.6c-4.7,1.5-9.2,4.7-13.3,7.4c-2.5,1.6-5.5,3.4-7.5,5.4c-0.5,0.5-0.1,1.1,0.5,1.2c0.8,0.1,1.6-0.5,2.3-0.9   c1.8-1,3.6-2.1,5.3-3.2c4.5-2.7,9.2-5,13.9-7.3C73.5,53.5,72.5,51.1,70.9,51.6z"></path><path d="M19.4,27.8c6.8,0.5,12.7,3,18.4,6.7c2,1.3,4-2.1,1.9-3.3c-6-3.4-13.5-6.8-20.6-5.4C18,26,18.4,27.7,19.4,27.8z"></path><path d="M24.6,36.8c-1.4-0.2-2,1.9-0.6,2.2c3.9,0.7,7.4,2.2,10.8,4.3c1.5,1,2.9-1.5,1.4-2.4C32.6,38.8,28.7,37.4,24.6,36.8z"></path><path d="M16.5,52.6c3.4,1.5,6.9,2.9,10.3,4.7c3.4,1.7,6.3,4.1,9.5,6c1.6,1,3.5-1.4,2.1-2.7c-5.7-5.2-13.8-7.8-21-10   C16.2,50.3,15.4,52.1,16.5,52.6z"></path></g></g><g id="SvgjsG1358" featurekey="fiAKjI-0" transform="matrix(4.477611940298507,0,0,4.477611940298507,-1.2537322827239534,51.95522618649611)" fill="#07689f"><path d="M5.82 20.26 c-3.46 0 -5.36 -1.72 -5.54 -4.54 l3.1 0 c0.06 1.04 0.66 2.08 2.52 2.08 c1.56 0 2.36 -0.62 2.36 -1.48 c0 -1.06 -1.34 -1.34 -2.9 -1.68 c-2.18 -0.52 -4.84 -1.16 -4.84 -4.42 c0 -2.4 1.86 -4.18 5.14 -4.18 c3.34 0 5.18 1.82 5.38 4.5 l-3.12 0 c-0.06 -1.1 -0.66 -1.98 -2.34 -1.98 c-1.24 0 -2.06 0.5 -2.06 1.4 c0 1.16 1.36 1.48 2.92 1.84 c2.24 0.5 4.92 1.06 4.92 4.14 c0 2.5 -1.96 4.32 -5.54 4.32 z M12.26 15.1 l3.1 0 c0 1.58 0.76 2.26 2.02 2.26 c1.28 0 2.02 -0.94 2.02 -2.38 l0 -8.68 l3.1 0 l0 8.68 c0 3.14 -1.8 5.26 -5.1 5.26 c-3.18 0 -5.16 -1.86 -5.14 -5.14 z M33.26 15.14 l-6.06 0 l0 4.86 l-3.1 0 l0 -13.7 l9.68 0 l0 2.84 l-6.58 0 l0 3.28 l6.06 0 l0 2.72 z"></path></g><g id="SvgjsG1359" featurekey="sloganFeature-0" transform="matrix(0.49128178974219877,0,0,0.49128178974219877,14.548020745238027,150.1505652915293)" fill="#07689f"><path d="M0.92 18.54 c0.88 0.82 2.7 1.66 4.52 1.66 c2.8 0 4.58 -1.44 4.58 -3.7 c0 -1.84 -0.88 -2.92 -3.92 -4.64 c-2.32 -1.34 -2.88 -1.78 -2.88 -2.66 c0 -0.94 0.88 -1.68 2.36 -1.68 c0.86 0 2 0.38 2.66 0.8 l0.96 -1.44 c-0.94 -0.62 -2.42 -1.08 -3.6 -1.08 c-2.58 0 -4.3 1.48 -4.3 3.42 c0 1.72 0.86 2.58 3.5 4.02 c2.34 1.28 3.3 2.22 3.3 3.24 c0 1.2 -1.04 1.92 -2.66 1.92 c-1.4 0 -2.8 -0.66 -3.5 -1.3 z M23.907 6 l1.8 0 l0 14 l-1.8 0 l0 -6.44 l-6.94 0 l0 6.44 l-1.8 0 l0 -14 l1.8 0 l0 5.84 l6.94 0 l0 -5.84 z M38.254 20.2 c-4 0 -7.18 -3.2 -7.18 -7.2 s3.18 -7.2 7.18 -7.2 s7.18 3.2 7.18 7.2 s-3.18 7.2 -7.18 7.2 z M38.254 18.48 c3.04 0 5.32 -2.38 5.32 -5.48 s-2.28 -5.48 -5.32 -5.48 c-3.06 0 -5.34 2.38 -5.34 5.48 s2.28 5.48 5.34 5.48 z M61.001 11.06 c0 2.26 -1.06 4.2 -3.24 4.84 l3.02 4.1 l-2.16 0 l-2.86 -3.88 l-3.14 0 l0 3.88 l-1.8 0 l0 -14 l5.28 0 c3.3 0 4.9 2.28 4.9 5.06 z M52.620999999999995 7.68 l0 6.74 l3.4 0 c2.26 0 3.18 -1.66 3.18 -3.36 s-0.92 -3.38 -3.18 -3.38 l-3.4 0 z M75.068 7.720000000000001 l-4.08 0 l0 12.28 l-1.8 0 l0 -12.28 l-4.1 0 l0.12 -1.72 l9.74 0 z M88.195 18.28 l0.12 1.72 l-8.52 0 l0 -14 l8.12 0 l0.14 1.72 l-6.46 0 l0 3.42 l4.38 0 l0 1.72 l-4.38 0 l0 5.42 l6.6 0 z M92.682 18.54 c0.88 0.82 2.7 1.66 4.52 1.66 c2.8 0 4.58 -1.44 4.58 -3.7 c0 -1.84 -0.88 -2.92 -3.92 -4.64 c-2.32 -1.34 -2.88 -1.78 -2.88 -2.66 c0 -0.94 0.88 -1.68 2.36 -1.68 c0.86 0 2 0.38 2.66 0.8 l0.96 -1.44 c-0.94 -0.62 -2.42 -1.08 -3.6 -1.08 c-2.58 0 -4.3 1.48 -4.3 3.42 c0 1.72 0.86 2.58 3.5 4.02 c2.34 1.28 3.3 2.22 3.3 3.24 c0 1.2 -1.04 1.92 -2.66 1.92 c-1.4 0 -2.8 -0.66 -3.5 -1.3 z M115.669 7.720000000000001 l-4.08 0 l0 12.28 l-1.8 0 l0 -12.28 l-4.1 0 l0.12 -1.72 l9.74 0 z M132.303 20.2 c-1.6 0 -3.06 -0.9 -3.88 -1.94 l1.24 -1.18 c0.64 0.74 1.62 1.4 2.64 1.4 c1.6 0 2.54 -1 2.54 -3.04 l0 -9.44 l1.78 0 l0 9.66 c0 2.88 -1.6 4.54 -4.32 4.54 z M149.07 20.2 c-4 0 -7.18 -3.2 -7.18 -7.2 s3.18 -7.2 7.18 -7.2 s7.18 3.2 7.18 7.2 s-3.18 7.2 -7.18 7.2 z M149.07 18.48 c3.04 0 5.32 -2.38 5.32 -5.48 s-2.28 -5.48 -5.32 -5.48 c-3.06 0 -5.34 2.38 -5.34 5.48 s2.28 5.48 5.34 5.48 z M169.23700000000002 11.16 c1.76 0.64 2.78 2.24 2.78 4.28 c0 2.38 -1.18 4.48 -5 4.56 l-5.38 0 l0 -14 l5.6 0 c2.46 0 3.14 1.8 3.14 2.94 c0 1 -0.6 1.8 -1.14 2.22 z M167.01700000000002 7.619999999999999 l-3.58 0 l0 3.12 l3.2 0 c1.42 0 1.98 -0.72 1.98 -1.58 c0 -0.62 -0.4 -1.54 -1.6 -1.54 z M166.857 18.28 c2.32 0 3.32 -1.16 3.32 -2.84 c0 -1.88 -1.04 -3.2 -3.28 -3.2 l-3.46 0 l0 6.04 l3.42 0 z M188.33100000000002 7.720000000000001 l0 4.32 l4.28 0 l0 1.72 l-4.28 0 l0 6.24 l-1.8 0 l0 -14 l7.96 0 l0.12 1.72 l-6.28 0 z M199.738 20 l0 -14 l1.8 0 l0 14 l-1.8 0 z M217.645 11.06 c0 2.26 -1.06 4.2 -3.24 4.84 l3.02 4.1 l-2.16 0 l-2.86 -3.88 l-3.14 0 l0 3.88 l-1.8 0 l0 -14 l5.28 0 c3.3 0 4.9 2.28 4.9 5.06 z M209.26500000000001 7.68 l0 6.74 l3.4 0 c2.26 0 3.18 -1.66 3.18 -3.36 s-0.92 -3.38 -3.18 -3.38 l-3.4 0 z M222.192 18.54 c0.88 0.82 2.7 1.66 4.52 1.66 c2.8 0 4.58 -1.44 4.58 -3.7 c0 -1.84 -0.88 -2.92 -3.92 -4.64 c-2.32 -1.34 -2.88 -1.78 -2.88 -2.66 c0 -0.94 0.88 -1.68 2.36 -1.68 c0.86 0 2 0.38 2.66 0.8 l0.96 -1.44 c-0.94 -0.62 -2.42 -1.08 -3.6 -1.08 c-2.58 0 -4.3 1.48 -4.3 3.42 c0 1.72 0.86 2.58 3.5 4.02 c2.34 1.28 3.3 2.22 3.3 3.24 c0 1.2 -1.04 1.92 -2.66 1.92 c-1.4 0 -2.8 -0.66 -3.5 -1.3 z M245.17900000000003 7.720000000000001 l-4.08 0 l0 12.28 l-1.8 0 l0 -12.28 l-4.1 0 l0.12 -1.72 l9.74 0 z"></path></g></svg>